<?xml version="1.0" encoding="utf-8" ?>
<svg baseProfile="full" height="155mm" version="1.1" width="300mm" xmlns="http://www.w3.org/2000/svg" xmlns:ev="http://www.w3.org/2001/xml-events" xmlns:xlink="http://www.w3.org/1999/xlink"><defs /><g fill="black" id="shapes"><text font-size="15" x="10mm" y="120mm" /><text font-size="15" x="10mm" y="130mm">Custo</text><text font-size="15" x="10mm" y="140mm">Dia</text><text font-size="15" x="10mm" y="150mm">Dinheiro</text></g><g id="hlines" stroke="#733317"><line x1="10.2mm" x2="3.06mm" y1="19.0mm" y2="13.31mm" /><line x1="3.06mm" x2="4.5mm" y1="13.31mm" y2="20.89mm" /><line x1="4.5mm" x2="11.52mm" y1="20.89mm" y2="35.73mm" /><line x1="11.52mm" x2="4.55mm" y1="35.73mm" y2="46.71mm" /><line x1="4.55mm" x2="1.42mm" y1="46.71mm" y2="65.61mm" /><line x1="1.42mm" x2="28.39mm" y1="65.61mm" y2="56.14mm" /><line x1="28.39mm" x2="31.45mm" y1="56.14mm" y2="47.45mm" /><line x1="31.45mm" x2="47.88mm" y1="47.45mm" y2="53.19mm" /><line x1="47.88mm" x2="43.95mm" y1="53.19mm" y2="81.25mm" /><line x1="43.95mm" x2="37.79mm" y1="81.25mm" y2="84.76mm" /><line x1="37.79mm" x2="34.15mm" y1="84.76mm" y2="87.78mm" /><line x1="34.15mm" x2="22.69mm" y1="87.78mm" y2="94.71mm" /><line x1="22.69mm" x2="49.56mm" y1="94.71mm" y2="99.41mm" /><line x1="49.56mm" x2="68.64mm" y1="99.41mm" y2="84.24mm" /><line x1="68.64mm" x2="84.9mm" y1="84.24mm" y2="91.28mm" /><line x1="84.9mm" x2="99.82mm" y1="91.28mm" y2="92.8mm" /><line x1="99.82mm" x2="79.86mm" y1="92.8mm" y2="51.32mm" /><line x1="79.86mm" x2="88.13mm" y1="51.32mm" y2="18.03mm" /><line x1="88.13mm" x2="86.98mm" y1="18.03mm" y2="3.07mm" /><line x1="86.98mm" x2="75.88mm" y1="3.07mm" y2="5.47mm" /><line x1="75.88mm" x2="68.23mm" y1="5.47mm" y2="12.6mm" /><line x1="68.23mm" x2="66.51mm" y1="12.6mm" y2="24.18mm" /><line x1="66.51mm" x2="73.94mm" y1="24.18mm" y2="28.19mm" /><line x1="73.94mm" x2="68.14mm" y1="28.19mm" y2="31.57mm" /><line x1="68.14mm" x2="64.85mm" y1="31.57mm" y2="45.49mm" /><line x1="64.85mm" x2="51.89mm" y1="45.49mm" y2="35.43mm" /><line x1="51.89mm" x2="33.26mm" y1="35.43mm" y2="32.69mm" /><line x1="33.26mm" x2="28.32mm" y1="32.69mm" y2="26.42mm" /><line x1="28.32mm" x2="29.69mm" y1="26.42mm" y2="3.18mm" /><line x1="29.69mm" x2="10.2mm" y1="3.18mm" y2="19.0mm" /></g><g fill="red" id="shapes"><circle cx="10.2mm" cy="19.0mm" r="0.5mm" stroke="blue" /><text x="7.199999999999999mm" y="22.0mm">Cidade0</text><circle cx="3.06mm" cy="13.31mm" r="0.5mm" stroke="blue" /><text x="0.06000000000000005mm" y="16.310000000000002mm">Cidade7</text><circle cx="4.5mm" cy="20.89mm" r="0.5mm" stroke="blue" /><text x="1.5mm" y="23.89mm">Cidade13</text><circle cx="11.52mm" cy="35.73mm" r="0.5mm" stroke="blue" /><text x="8.52mm" y="38.73mm">Cidade1</text><circle cx="4.55mm" cy="46.71mm" r="0.5mm" stroke="blue" /><text x="1.5499999999999998mm" y="49.71mm">Cidade14</text><circle cx="1.42mm" cy="65.61mm" r="0.5mm" stroke="blue" /><text x="-1.58mm" y="68.61mm">Cidade2</text><circle cx="28.39mm" cy="56.14mm" r="0.5mm" stroke="blue" /><text x="25.39mm" y="59.14mm">Cidade5</text><circle cx="31.45mm" cy="47.45mm" r="0.5mm" stroke="blue" /><text x="28.45mm" y="50.45mm">Cidade8</text><circle cx="47.88mm" cy="53.19mm" r="0.5mm" stroke="blue" /><text x="44.88mm" y="56.19mm">Cidade15</text><circle cx="43.95mm" cy="81.25mm" r="0.5mm" stroke="blue" /><text x="40.95mm" y="84.25mm">Cidade12</text><circle cx="37.79mm" cy="84.76mm" r="0.5mm" stroke="blue" /><text x="34.79mm" y="87.76mm">Cidade11</text><circle cx="34.15mm" cy="87.78mm" r="0.5mm" stroke="blue" /><text x="31.15mm" y="90.78mm">Cidade10</text><circle cx="22.69mm" cy="94.71mm" r="0.5mm" stroke="blue" /><text x="19.69mm" y="97.71mm">Cidade3</text><circle cx="49.56mm" cy="99.41mm" r="0.5mm" stroke="blue" /><text x="46.56mm" y="102.41mm">Cidade16</text><circle cx="68.64mm" cy="84.24mm" r="0.5mm" stroke="blue" /><text x="65.64mm" y="87.24mm">Cidade22</text><circle cx="84.9mm" cy="91.28mm" r="0.5mm" stroke="blue" /><text x="81.9mm" y="94.28mm">Cidade26</text><circle cx="99.82mm" cy="92.8mm" r="0.5mm" stroke="blue" /><text x="96.82mm" y="95.8mm">Cidade29</text><circle cx="79.86mm" cy="51.32mm" r="0.5mm" stroke="blue" /><text x="76.86mm" y="54.32mm">Cidade25</text><circle cx="88.13mm" cy="18.03mm" r="0.5mm" stroke="blue" /><text x="85.13mm" y="21.03mm">Cidade28</text><circle cx="86.98mm" cy="3.07mm" r="0.5mm" stroke="blue" /><text x="83.98mm" y="6.07mm">Cidade27</text><circle cx="75.88mm" cy="5.47mm" r="0.5mm" stroke="blue" /><text x="72.88mm" y="8.469999999999999mm">Cidade24</text><circle cx="68.23mm" cy="12.6mm" r="0.5mm" stroke="blue" /><text x="65.23mm" y="15.6mm">Cidade21</text><circle cx="66.51mm" cy="24.18mm" r="0.5mm" stroke="blue" /><text x="63.510000000000005mm" y="27.18mm">Cidade19</text><circle cx="73.94mm" cy="28.19mm" r="0.5mm" stroke="blue" /><text x="70.94mm" y="31.19mm">Cidade23</text><circle cx="68.14mm" cy="31.57mm" r="0.5mm" stroke="blue" /><text x="65.14mm" y="34.57mm">Cidade20</text><circle cx="64.85mm" cy="45.49mm" r="0.5mm" stroke="blue" /><text x="61.849999999999994mm" y="48.49mm">Cidade18</text><circle cx="51.89mm" cy="35.43mm" r="0.5mm" stroke="blue" /><text x="48.89mm" y="38.43mm">Cidade17</text><circle cx="33.26mm" cy="32.69mm" r="0.5mm" stroke="blue" /><text x="30.259999999999998mm" y="35.69mm">Cidade9</text><circle cx="28.32mm" cy="26.42mm" r="0.5mm" stroke="blue" /><text x="25.32mm" y="29.42mm">Cidade4</text><circle cx="29.69mm" cy="3.18mm" r="0.5mm" stroke="blue" /><text x="26.69mm" y="6.18mm">Cidade6</text><text fill="#733317" font-size="15" x="40mm" y="120mm">Caxeiro0</text><text fill="#733317" font-size="15" x="40mm" y="130mm">50846.22</text><text fill="#733317" font-size="15" x="40mm" y="140mm">84.74</text><text fill="#733317" font-size="15" x="40mm" y="150mm">12711.56</text></g><g fill="black" id="shapes"><text font-size="15" x="70mm" y="120mm">Total</text><text font-size="15" x="70mm" y="130mm">50846.22</text><text font-size="15" x="70mm" y="140mm">84.74</text><text font-size="15" x="70mm" y="150mm">12711.56</text></g></svg>