<?xml version="1.0" encoding="utf-8" ?>
<svg baseProfile="full" height="255mm" version="1.1" width="415mm" xmlns="http://www.w3.org/2000/svg" xmlns:ev="http://www.w3.org/2001/xml-events" xmlns:xlink="http://www.w3.org/1999/xlink"><defs /><g fill="black" id="shapes"><text font-size="15" x="10mm" y="220mm" /><text font-size="15" x="10mm" y="230mm">Custo</text><text font-size="15" x="10mm" y="240mm">Dia</text><text font-size="15" x="10mm" y="250mm">Dinheiro</text></g><g id="hlines" stroke="#0BCE23"><line x1="111.5mm" x2="138.0mm" y1="105.2mm" y2="93.9mm" /><line x1="138.0mm" x2="118.7mm" y1="93.9mm" y2="70.6mm" /><line x1="118.7mm" x2="83.9mm" y1="70.6mm" y2="62.0mm" /><line x1="83.9mm" x2="61.1mm" y1="62.0mm" y2="67.3mm" /><line x1="61.1mm" x2="37.6mm" y1="67.3mm" y2="82.5mm" /><line x1="37.6mm" x2="37.8mm" y1="82.5mm" y2="104.8mm" /><line x1="37.8mm" x2="25.2mm" y1="104.8mm" y2="124.0mm" /><line x1="25.2mm" x2="27.4mm" y1="124.0mm" y2="142.0mm" /><line x1="27.4mm" x2="29.8mm" y1="142.0mm" y2="151.3mm" /><line x1="29.8mm" x2="46.3mm" y1="151.3mm" y2="167.0mm" /><line x1="46.3mm" x2="19.8mm" y1="167.0mm" y2="181.0mm" /><line x1="19.8mm" x2="2.2mm" y1="181.0mm" y2="98.7mm" /><line x1="2.2mm" x2="16.1mm" y1="98.7mm" y2="90.6mm" /><line x1="16.1mm" x2="12.3mm" y1="90.6mm" y2="86.2mm" /><line x1="12.3mm" x2="5.3mm" y1="86.2mm" y2="85.7mm" /><line x1="5.3mm" x2="1.9mm" y1="85.7mm" y2="67.4mm" /><line x1="1.9mm" x2="24.1mm" y1="67.4mm" y2="34.1mm" /><line x1="24.1mm" x2="17.8mm" y1="34.1mm" y2="2.4mm" /><line x1="17.8mm" x2="32.7mm" y1="2.4mm" y2="26.5mm" /><line x1="32.7mm" x2="45.7mm" y1="26.5mm" y2="33.4mm" /><line x1="45.7mm" x2="77.6mm" y1="33.4mm" y2="39.2mm" /><line x1="77.6mm" x2="95.3mm" y1="39.2mm" y2="26.8mm" /><line x1="95.3mm" x2="117.8mm" y1="26.8mm" y2="10.0mm" /><line x1="117.8mm" x2="125.6mm" y1="10.0mm" y2="6.1mm" /><line x1="125.6mm" x2="142.9mm" y1="6.1mm" y2="13.4mm" /><line x1="142.9mm" x2="132.3mm" y1="13.4mm" y2="28.0mm" /><line x1="132.3mm" x2="128.6mm" y1="28.0mm" y2="52.5mm" /><line x1="128.6mm" x2="191.7mm" y1="52.5mm" y2="68.7mm" /><line x1="191.7mm" x2="242.1mm" y1="68.7mm" y2="100.7mm" /><line x1="242.1mm" x2="209.7mm" y1="100.7mm" y2="98.1mm" /><line x1="209.7mm" x2="179.5mm" y1="98.1mm" y2="96.2mm" /><line x1="179.5mm" x2="178.7mm" y1="96.2mm" y2="100.9mm" /><line x1="178.7mm" x2="139.3mm" y1="100.9mm" y2="136.8mm" /><line x1="139.3mm" x2="162.5mm" y1="136.8mm" y2="165.1mm" /><line x1="162.5mm" x2="172.4mm" y1="165.1mm" y2="164.2mm" /><line x1="172.4mm" x2="180.7mm" y1="164.2mm" y2="171.1mm" /><line x1="180.7mm" x2="162.1mm" y1="171.1mm" y2="183.0mm" /><line x1="162.1mm" x2="142.4mm" y1="183.0mm" y2="172.8mm" /><line x1="142.4mm" x2="125.1mm" y1="172.8mm" y2="183.2mm" /><line x1="125.1mm" x2="124.7mm" y1="183.2mm" y2="194.5mm" /><line x1="124.7mm" x2="123.4mm" y1="194.5mm" y2="194.6mm" /><line x1="123.4mm" x2="89.0mm" y1="194.6mm" y2="184.6mm" /><line x1="89.0mm" x2="92.9mm" y1="184.6mm" y2="176.6mm" /><line x1="92.9mm" x2="92.8mm" y1="176.6mm" y2="170.0mm" /><line x1="92.8mm" x2="87.2mm" y1="170.0mm" y2="155.9mm" /><line x1="87.2mm" x2="61.1mm" y1="155.9mm" y2="138.4mm" /><line x1="61.1mm" x2="73.8mm" y1="138.4mm" y2="132.5mm" /><line x1="73.8mm" x2="74.2mm" y1="132.5mm" y2="102.5mm" /><line x1="74.2mm" x2="93.8mm" y1="102.5mm" y2="95.5mm" /><line x1="93.8mm" x2="98.4mm" y1="95.5mm" y2="96.5mm" /><line x1="98.4mm" x2="111.5mm" y1="96.5mm" y2="105.2mm" /></g><g fill="red" id="shapes"><circle cx="111.5mm" cy="105.2mm" r="0.5mm" stroke="blue" /><text x="108.5mm" y="108.2mm">Cidade0</text><circle cx="138.0mm" cy="93.9mm" r="0.5mm" stroke="blue" /><text x="135.0mm" y="96.9mm">Cidade10</text><circle cx="118.7mm" cy="70.6mm" r="0.5mm" stroke="blue" /><text x="115.7mm" y="73.6mm">Cidade2</text><circle cx="83.9mm" cy="62.0mm" r="0.5mm" stroke="blue" /><text x="80.9mm" y="65.0mm">Cidade92</text><circle cx="61.1mm" cy="67.3mm" r="0.5mm" stroke="blue" /><text x="58.1mm" y="70.3mm">Cidade88</text><circle cx="37.6mm" cy="82.5mm" r="0.5mm" stroke="blue" /><text x="34.6mm" y="85.5mm">Cidade71</text><circle cx="37.8mm" cy="104.8mm" r="0.5mm" stroke="blue" /><text x="34.8mm" y="107.8mm">Cidade72</text><circle cx="25.2mm" cy="124.0mm" r="0.5mm" stroke="blue" /><text x="22.2mm" y="127.0mm">Cidade34</text><circle cx="27.4mm" cy="142.0mm" r="0.5mm" stroke="blue" /><text x="24.4mm" y="145.0mm">Cidade49</text><circle cx="29.8mm" cy="151.3mm" r="0.5mm" stroke="blue" /><text x="26.8mm" y="154.3mm">Cidade55</text><circle cx="46.3mm" cy="167.0mm" r="0.5mm" stroke="blue" /><text x="43.3mm" y="170.0mm">Cidade85</text><circle cx="19.8mm" cy="181.0mm" r="0.5mm" stroke="blue" /><text x="16.8mm" y="184.0mm">Cidade24</text><circle cx="2.2mm" cy="98.7mm" r="0.5mm" stroke="blue" /><text x="-0.7999999999999998mm" y="101.7mm">Cidade28</text><circle cx="16.1mm" cy="90.6mm" r="0.5mm" stroke="blue" /><text x="13.100000000000001mm" y="93.6mm">Cidade14</text><circle cx="12.3mm" cy="86.2mm" r="0.5mm" stroke="blue" /><text x="9.3mm" y="89.2mm">Cidade3</text><circle cx="5.3mm" cy="85.7mm" r="0.5mm" stroke="blue" /><text x="2.3mm" y="88.7mm">Cidade86</text><circle cx="1.9mm" cy="67.4mm" r="0.5mm" stroke="blue" /><text x="-1.1mm" y="70.4mm">Cidade22</text><circle cx="24.1mm" cy="34.1mm" r="0.5mm" stroke="blue" /><text x="21.1mm" y="37.1mm">Cidade30</text><circle cx="17.8mm" cy="2.4mm" r="0.5mm" stroke="blue" /><text x="14.8mm" y="5.4mm">Cidade18</text><circle cx="32.7mm" cy="26.5mm" r="0.5mm" stroke="blue" /><text x="29.700000000000003mm" y="29.5mm">Cidade60</text><circle cx="45.7mm" cy="33.4mm" r="0.5mm" stroke="blue" /><text x="42.7mm" y="36.4mm">Cidade84</text><circle cx="77.6mm" cy="39.2mm" r="0.5mm" stroke="blue" /><text x="74.6mm" y="42.2mm">Cidade91</text><circle cx="95.3mm" cy="26.8mm" r="0.5mm" stroke="blue" /><text x="92.3mm" y="29.8mm">Cidade98</text><circle cx="117.8mm" cy="10.0mm" r="0.5mm" stroke="blue" /><text x="114.8mm" y="13.0mm">Cidade1</text><circle cx="125.6mm" cy="6.1mm" r="0.5mm" stroke="blue" /><text x="122.6mm" y="9.1mm">Cidade7</text><circle cx="142.9mm" cy="13.4mm" r="0.5mm" stroke="blue" /><text x="139.9mm" y="16.4mm">Cidade13</text><circle cx="132.3mm" cy="28.0mm" r="0.5mm" stroke="blue" /><text x="129.3mm" y="31.0mm">Cidade9</text><circle cx="128.6mm" cy="52.5mm" r="0.5mm" stroke="blue" /><text x="125.6mm" y="55.5mm">Cidade8</text><circle cx="191.7mm" cy="68.7mm" r="0.5mm" stroke="blue" /><text x="188.7mm" y="71.7mm">Cidade23</text><circle cx="242.1mm" cy="100.7mm" r="0.5mm" stroke="blue" /><text x="239.1mm" y="103.7mm">Cidade31</text><circle cx="209.7mm" cy="98.1mm" r="0.5mm" stroke="blue" /><text x="206.7mm" y="101.1mm">Cidade25</text><circle cx="179.5mm" cy="96.2mm" r="0.5mm" stroke="blue" /><text x="176.5mm" y="99.2mm">Cidade20</text><circle cx="178.7mm" cy="100.9mm" r="0.5mm" stroke="blue" /><text x="175.7mm" y="103.9mm">Cidade19</text><circle cx="139.3mm" cy="136.8mm" r="0.5mm" stroke="blue" /><text x="136.3mm" y="139.8mm">Cidade11</text><circle cx="162.5mm" cy="165.1mm" r="0.5mm" stroke="blue" /><text x="159.5mm" y="168.1mm">Cidade16</text><circle cx="172.4mm" cy="164.2mm" r="0.5mm" stroke="blue" /><text x="169.4mm" y="167.2mm">Cidade17</text><circle cx="180.7mm" cy="171.1mm" r="0.5mm" stroke="blue" /><text x="177.7mm" y="174.1mm">Cidade21</text><circle cx="162.1mm" cy="183.0mm" r="0.5mm" stroke="blue" /><text x="159.1mm" y="186.0mm">Cidade15</text><circle cx="142.4mm" cy="172.8mm" r="0.5mm" stroke="blue" /><text x="139.4mm" y="175.8mm">Cidade12</text><circle cx="125.1mm" cy="183.2mm" r="0.5mm" stroke="blue" /><text x="122.1mm" y="186.2mm">Cidade6</text><circle cx="124.7mm" cy="194.5mm" r="0.5mm" stroke="blue" /><text x="121.7mm" y="197.5mm">Cidade5</text><circle cx="123.4mm" cy="194.6mm" r="0.5mm" stroke="blue" /><text x="120.4mm" y="197.6mm">Cidade4</text><circle cx="89.0mm" cy="184.6mm" r="0.5mm" stroke="blue" /><text x="86.0mm" y="187.6mm">Cidade94</text><circle cx="92.9mm" cy="176.6mm" r="0.5mm" stroke="blue" /><text x="89.9mm" y="179.6mm">Cidade96</text><circle cx="92.8mm" cy="170.0mm" r="0.5mm" stroke="blue" /><text x="89.8mm" y="173.0mm">Cidade95</text><circle cx="87.2mm" cy="155.9mm" r="0.5mm" stroke="blue" /><text x="84.2mm" y="158.9mm">Cidade93</text><circle cx="61.1mm" cy="138.4mm" r="0.5mm" stroke="blue" /><text x="58.1mm" y="141.4mm">Cidade87</text><circle cx="73.8mm" cy="132.5mm" r="0.5mm" stroke="blue" /><text x="70.8mm" y="135.5mm">Cidade89</text><circle cx="74.2mm" cy="102.5mm" r="0.5mm" stroke="blue" /><text x="71.2mm" y="105.5mm">Cidade90</text><circle cx="93.8mm" cy="95.5mm" r="0.5mm" stroke="blue" /><text x="90.8mm" y="98.5mm">Cidade97</text><circle cx="98.4mm" cy="96.5mm" r="0.5mm" stroke="blue" /><text x="95.4mm" y="99.5mm">Cidade99</text><text fill="#0BCE23" font-size="15" x="30mm" y="220mm">Caxeiro0</text><text fill="#0BCE23" font-size="15" x="30mm" y="230mm">12348.19</text><text fill="#0BCE23" font-size="15" x="30mm" y="240mm">20.58</text><text fill="#0BCE23" font-size="15" x="30mm" y="250mm">3087.05</text></g><g id="hlines" stroke="#0B9602"><line x1="111.5mm" x2="217.8mm" y1="105.2mm" y2="161.9mm" /><line x1="217.8mm" x2="257.6mm" y1="161.9mm" y2="167.6mm" /><line x1="257.6mm" x2="262.8mm" y1="167.6mm" y2="147.9mm" /><line x1="262.8mm" x2="272.1mm" y1="147.9mm" y2="148.2mm" /><line x1="272.1mm" x2="271.6mm" y1="148.2mm" y2="143.2mm" /><line x1="271.6mm" x2="258.6mm" y1="143.2mm" y2="128.6mm" /><line x1="258.6mm" x2="248.2mm" y1="128.6mm" y2="118.3mm" /><line x1="248.2mm" x2="257.4mm" y1="118.3mm" y2="94.6mm" /><line x1="257.4mm" x2="259.9mm" y1="94.6mm" y2="90.1mm" /><line x1="259.9mm" x2="257.3mm" y1="90.1mm" y2="59.9mm" /><line x1="257.3mm" x2="258.8mm" y1="59.9mm" y2="30.2mm" /><line x1="258.8mm" x2="254.2mm" y1="30.2mm" y2="23.6mm" /><line x1="254.2mm" x2="251.9mm" y1="23.6mm" y2="13.5mm" /><line x1="251.9mm" x2="284.8mm" y1="13.5mm" y2="9.6mm" /><line x1="284.8mm" x2="293.6mm" y1="9.6mm" y2="33.7mm" /><line x1="293.6mm" x2="302.2mm" y1="33.7mm" y2="47.4mm" /><line x1="302.2mm" x2="286.3mm" y1="47.4mm" y2="55.8mm" /><line x1="286.3mm" x2="299.1mm" y1="55.8mm" y2="79.2mm" /><line x1="299.1mm" x2="311.3mm" y1="79.2mm" y2="88.5mm" /><line x1="311.3mm" x2="347.9mm" y1="88.5mm" y2="82.1mm" /><line x1="347.9mm" x2="341.6mm" y1="82.1mm" y2="14.3mm" /><line x1="341.6mm" x2="364.0mm" y1="14.3mm" y2="4.3mm" /><line x1="364.0mm" x2="381.5mm" y1="4.3mm" y2="16.9mm" /><line x1="381.5mm" x2="389.3mm" y1="16.9mm" y2="10.2mm" /><line x1="389.3mm" x2="391.3mm" y1="10.2mm" y2="19.2mm" /><line x1="391.3mm" x2="387.5mm" y1="19.2mm" y2="59.8mm" /><line x1="387.5mm" x2="388.8mm" y1="59.8mm" y2="66.6mm" /><line x1="388.8mm" x2="385.4mm" y1="66.6mm" y2="92.3mm" /><line x1="385.4mm" x2="382.2mm" y1="92.3mm" y2="89.9mm" /><line x1="382.2mm" x2="375.6mm" y1="89.9mm" y2="88.2mm" /><line x1="375.6mm" x2="352.0mm" y1="88.2mm" y2="107.9mm" /><line x1="352.0mm" x2="387.4mm" y1="107.9mm" y2="131.8mm" /><line x1="387.4mm" x2="395.0mm" y1="131.8mm" y2="155.8mm" /><line x1="395.0mm" x2="395.5mm" y1="155.8mm" y2="174.3mm" /><line x1="395.5mm" x2="391.1mm" y1="174.3mm" y2="167.3mm" /><line x1="391.1mm" x2="368.3mm" y1="167.3mm" y2="153.3mm" /><line x1="368.3mm" x2="351.0mm" y1="153.3mm" y2="167.1mm" /><line x1="351.0mm" x2="344.7mm" y1="167.1mm" y2="183.0mm" /><line x1="344.7mm" x2="337.3mm" y1="183.0mm" y2="164.6mm" /><line x1="337.3mm" x2="338.4mm" y1="164.6mm" y2="149.8mm" /><line x1="338.4mm" x2="308.5mm" y1="149.8mm" y2="152.8mm" /><line x1="308.5mm" x2="296.1mm" y1="152.8mm" y2="160.5mm" /><line x1="296.1mm" x2="294.5mm" y1="160.5mm" y2="162.2mm" /><line x1="294.5mm" x2="272.8mm" y1="162.2mm" y2="169.8mm" /><line x1="272.8mm" x2="267.8mm" y1="169.8mm" y2="182.5mm" /><line x1="267.8mm" x2="259.7mm" y1="182.5mm" y2="183.0mm" /><line x1="259.7mm" x2="257.3mm" y1="183.0mm" y2="196.9mm" /><line x1="257.3mm" x2="229.0mm" y1="196.9mm" y2="181.0mm" /><line x1="229.0mm" x2="213.9mm" y1="181.0mm" y2="180.6mm" /><line x1="213.9mm" x2="111.5mm" y1="180.6mm" y2="105.2mm" /></g><g fill="red" id="shapes"><circle cx="111.5mm" cy="105.2mm" r="0.5mm" stroke="blue" /><text x="108.5mm" y="108.2mm">Cidade0</text><circle cx="217.8mm" cy="161.9mm" r="0.5mm" stroke="blue" /><text x="214.8mm" y="164.9mm">Cidade27</text><circle cx="257.6mm" cy="167.6mm" r="0.5mm" stroke="blue" /><text x="254.60000000000002mm" y="170.6mm">Cidade39</text><circle cx="262.8mm" cy="147.9mm" r="0.5mm" stroke="blue" /><text x="259.8mm" y="150.9mm">Cidade44</text><circle cx="272.1mm" cy="148.2mm" r="0.5mm" stroke="blue" /><text x="269.1mm" y="151.2mm">Cidade47</text><circle cx="271.6mm" cy="143.2mm" r="0.5mm" stroke="blue" /><text x="268.6mm" y="146.2mm">Cidade46</text><circle cx="258.6mm" cy="128.6mm" r="0.5mm" stroke="blue" /><text x="255.60000000000002mm" y="131.6mm">Cidade40</text><circle cx="248.2mm" cy="118.3mm" r="0.5mm" stroke="blue" /><text x="245.2mm" y="121.3mm">Cidade32</text><circle cx="257.4mm" cy="94.6mm" r="0.5mm" stroke="blue" /><text x="254.39999999999998mm" y="97.6mm">Cidade38</text><circle cx="259.9mm" cy="90.1mm" r="0.5mm" stroke="blue" /><text x="256.9mm" y="93.1mm">Cidade43</text><circle cx="257.3mm" cy="59.9mm" r="0.5mm" stroke="blue" /><text x="254.3mm" y="62.9mm">Cidade37</text><circle cx="258.8mm" cy="30.2mm" r="0.5mm" stroke="blue" /><text x="255.8mm" y="33.2mm">Cidade41</text><circle cx="254.2mm" cy="23.6mm" r="0.5mm" stroke="blue" /><text x="251.2mm" y="26.6mm">Cidade35</text><circle cx="251.9mm" cy="13.5mm" r="0.5mm" stroke="blue" /><text x="248.9mm" y="16.5mm">Cidade33</text><circle cx="284.8mm" cy="9.6mm" r="0.5mm" stroke="blue" /><text x="281.8mm" y="12.6mm">Cidade50</text><circle cx="293.6mm" cy="33.7mm" r="0.5mm" stroke="blue" /><text x="290.6mm" y="36.7mm">Cidade52</text><circle cx="302.2mm" cy="47.4mm" r="0.5mm" stroke="blue" /><text x="299.2mm" y="50.4mm">Cidade57</text><circle cx="286.3mm" cy="55.8mm" r="0.5mm" stroke="blue" /><text x="283.3mm" y="58.8mm">Cidade51</text><circle cx="299.1mm" cy="79.2mm" r="0.5mm" stroke="blue" /><text x="296.1mm" y="82.2mm">Cidade56</text><circle cx="311.3mm" cy="88.5mm" r="0.5mm" stroke="blue" /><text x="308.3mm" y="91.5mm">Cidade59</text><circle cx="347.9mm" cy="82.1mm" r="0.5mm" stroke="blue" /><text x="344.9mm" y="85.1mm">Cidade65</text><circle cx="341.6mm" cy="14.3mm" r="0.5mm" stroke="blue" /><text x="338.6mm" y="17.3mm">Cidade63</text><circle cx="364.0mm" cy="4.3mm" r="0.5mm" stroke="blue" /><text x="361.0mm" y="7.3mm">Cidade68</text><circle cx="381.5mm" cy="16.9mm" r="0.5mm" stroke="blue" /><text x="378.5mm" y="19.9mm">Cidade73</text><circle cx="389.3mm" cy="10.2mm" r="0.5mm" stroke="blue" /><text x="386.3mm" y="13.2mm">Cidade79</text><circle cx="391.3mm" cy="19.2mm" r="0.5mm" stroke="blue" /><text x="388.3mm" y="22.2mm">Cidade81</text><circle cx="387.5mm" cy="59.8mm" r="0.5mm" stroke="blue" /><text x="384.5mm" y="62.8mm">Cidade77</text><circle cx="388.8mm" cy="66.6mm" r="0.5mm" stroke="blue" /><text x="385.8mm" y="69.6mm">Cidade78</text><circle cx="385.4mm" cy="92.3mm" r="0.5mm" stroke="blue" /><text x="382.4mm" y="95.3mm">Cidade75</text><circle cx="382.2mm" cy="89.9mm" r="0.5mm" stroke="blue" /><text x="379.2mm" y="92.9mm">Cidade74</text><circle cx="375.6mm" cy="88.2mm" r="0.5mm" stroke="blue" /><text x="372.6mm" y="91.2mm">Cidade70</text><circle cx="352.0mm" cy="107.9mm" r="0.5mm" stroke="blue" /><text x="349.0mm" y="110.9mm">Cidade67</text><circle cx="387.4mm" cy="131.8mm" r="0.5mm" stroke="blue" /><text x="384.4mm" y="134.8mm">Cidade76</text><circle cx="395.0mm" cy="155.8mm" r="0.5mm" stroke="blue" /><text x="392.0mm" y="158.8mm">Cidade82</text><circle cx="395.5mm" cy="174.3mm" r="0.5mm" stroke="blue" /><text x="392.5mm" y="177.3mm">Cidade83</text><circle cx="391.1mm" cy="167.3mm" r="0.5mm" stroke="blue" /><text x="388.1mm" y="170.3mm">Cidade80</text><circle cx="368.3mm" cy="153.3mm" r="0.5mm" stroke="blue" /><text x="365.3mm" y="156.3mm">Cidade69</text><circle cx="351.0mm" cy="167.1mm" r="0.5mm" stroke="blue" /><text x="348.0mm" y="170.1mm">Cidade66</text><circle cx="344.7mm" cy="183.0mm" r="0.5mm" stroke="blue" /><text x="341.7mm" y="186.0mm">Cidade64</text><circle cx="337.3mm" cy="164.6mm" r="0.5mm" stroke="blue" /><text x="334.3mm" y="167.6mm">Cidade61</text><circle cx="338.4mm" cy="149.8mm" r="0.5mm" stroke="blue" /><text x="335.4mm" y="152.8mm">Cidade62</text><circle cx="308.5mm" cy="152.8mm" r="0.5mm" stroke="blue" /><text x="305.5mm" y="155.8mm">Cidade58</text><circle cx="296.1mm" cy="160.5mm" r="0.5mm" stroke="blue" /><text x="293.1mm" y="163.5mm">Cidade54</text><circle cx="294.5mm" cy="162.2mm" r="0.5mm" stroke="blue" /><text x="291.5mm" y="165.2mm">Cidade53</text><circle cx="272.8mm" cy="169.8mm" r="0.5mm" stroke="blue" /><text x="269.8mm" y="172.8mm">Cidade48</text><circle cx="267.8mm" cy="182.5mm" r="0.5mm" stroke="blue" /><text x="264.8mm" y="185.5mm">Cidade45</text><circle cx="259.7mm" cy="183.0mm" r="0.5mm" stroke="blue" /><text x="256.7mm" y="186.0mm">Cidade42</text><circle cx="257.3mm" cy="196.9mm" r="0.5mm" stroke="blue" /><text x="254.3mm" y="199.9mm">Cidade36</text><circle cx="229.0mm" cy="181.0mm" r="0.5mm" stroke="blue" /><text x="226.0mm" y="184.0mm">Cidade29</text><circle cx="213.9mm" cy="180.6mm" r="0.5mm" stroke="blue" /><text x="210.9mm" y="183.6mm">Cidade26</text><text fill="#0B9602" font-size="15" x="60mm" y="220mm">Caxeiro1</text><text fill="#0B9602" font-size="15" x="60mm" y="230mm">12354.77</text><text fill="#0B9602" font-size="15" x="60mm" y="240mm">20.59</text><text fill="#0B9602" font-size="15" x="60mm" y="250mm">3088.69</text></g><g fill="black" id="shapes"><text font-size="15" x="90mm" y="220mm">Total</text><text font-size="15" x="90mm" y="230mm">24702.96</text><text font-size="15" x="90mm" y="240mm">41.17</text><text font-size="15" x="90mm" y="250mm">6175.74</text></g></svg>